<svg xmlns="http://www.w3.org/2000/svg" viewBox="0 0 1000 420" font-family="system-ui, -apple-system, 'Segoe UI', sans-serif">
<defs><marker id="a" markerWidth="10" markerHeight="10" refX="8" refY="5" orient="auto"><path d="M0,0 L10,5 L0,10 z" fill="#0b0b0b"/></marker></defs>
<rect width="1000" height="420" fill="#fcfcfb" stroke="#e1e0d9"/>
<rect x="30" y="160" width="170" height="80" rx="8" fill="#fff" stroke="#c3c2b7"/>
<text x="115" y="206" font-size="18" text-anchor="middle" fill="#0b0b0b">Browser</text>
<rect x="290" y="140" width="190" height="100" rx="8" fill="#fff" stroke="#c3c2b7"/>
<text x="385" y="182" font-size="18" text-anchor="middle" fill="#0b0b0b">Cloudflare</text>
<text x="385" y="206" font-size="14" text-anchor="middle" fill="#898781">login check (Access)</text>
<rect x="580" y="20" width="390" height="200" rx="10" fill="#f3f2ee" stroke="#c3c2b7" stroke-dasharray="6 4"/>
<text x="600" y="44" font-size="14" fill="#898781">Home network (no inbound ports)</text>
<rect x="610" y="65" width="150" height="70" rx="8" fill="#fff" stroke="#c3c2b7"/>
<text x="685" y="96" font-size="18" text-anchor="middle" fill="#0b0b0b">Tunnel agent</text>
<text x="685" y="118" font-size="14" text-anchor="middle" fill="#898781">in the cluster</text>
<rect x="820" y="65" width="130" height="70" rx="8" fill="#fff" stroke="#c3c2b7"/>
<text x="885" y="106" font-size="18" text-anchor="middle" fill="#0b0b0b">Dashboards</text>
<rect x="700" y="152" width="200" height="50" rx="8" fill="#fff" stroke="#c3c2b7"/>
<text x="800" y="182" font-size="16" text-anchor="middle" fill="#0b0b0b">Cluster (kubectl, talosctl)</text>
<rect x="580" y="260" width="390" height="140" rx="10" fill="#f3f2ee" stroke="#c3c2b7" stroke-dasharray="6 4"/>
<text x="600" y="284" font-size="14" fill="#898781">AWS (no inbound rules)</text>
<rect x="610" y="305" width="190" height="70" rx="8" fill="#fff" stroke="#c3c2b7"/>
<text x="705" y="336" font-size="18" text-anchor="middle" fill="#0b0b0b">Jumpbox</text>
<text x="705" y="358" font-size="14" text-anchor="middle" fill="#898781">browser SSH + Tailscale</text>
<line x1="200" y1="200" x2="288" y2="200" stroke="#0b0b0b" stroke-width="2" marker-end="url(#a)"/>
<text x="244" y="190" font-size="14" text-anchor="middle" fill="#898781">request</text>
<line x1="760" y1="100" x2="818" y2="100" stroke="#0b0b0b" stroke-width="2" marker-end="url(#a)"/>
<path d="M610,100 L440,100 L440,138" stroke="#0b0b0b" stroke-width="2" fill="none" stroke-dasharray="6 4" marker-end="url(#a)"/>
<text x="525" y="92" font-size="14" text-anchor="middle" fill="#0b0b0b">agent dials out</text>
<path d="M610,340 L440,340 L440,242" stroke="#0b0b0b" stroke-width="2" fill="none" stroke-dasharray="6 4" marker-end="url(#a)"/>
<text x="525" y="332" font-size="14" text-anchor="middle" fill="#0b0b0b">jumpbox dials out</text>
<line x1="750" y1="304" x2="750" y2="204" stroke="#0b0b0b" stroke-width="2" marker-end="url(#a)"/>
<text x="770" y="250" font-size="14" fill="#0b0b0b">Tailscale</text>
</svg>
